<svg fill="none" height="456" viewBox="0 0 352 456" width="352" xmlns="http://www.w3.org/2000/svg"><path d="m46.31 6.11h299.24v403.21h-299.24z" fill="#fff" stroke="#333" stroke-miterlimit="10" stroke-width="11.3588"/><path d="m6.45001 46.68h299.23999v403.21h-299.23999z" fill="#fff" stroke="#333" stroke-miterlimit="10" stroke-width="11.3588"/><g fill="#333"><path d="m129.97 293.84h136.25v7.55h-136.25z"/><path d="m46.31 293.84h46.55v7.55h-46.55z"/><path d="m215 342.57h51.23v7.55h-51.23z"/><path d="m46.55 342.57h131.05v7.55h-131.05z"/><path d="m46.55 391.31h36.54v7.55h-36.54z"/><path d="m119.74 391.31h146.48v7.55h-146.48z"/><path d="m203.6 172.23c-1-3.31-1.74-6.1-2.67-8.81-4.1-11.97-9.79-22.99-19.25-31.7-14.22-13.08-32.8-13.73-47.71-1.6-8.09 6.59-13.55 15.12-17.36 24.69-2.2 5.52-3.85 11.26-5.74 16.9.19.15.38.3.57.44 31.88-13.1 61.72-13.39 92.16.08z"/><path d="m146.96 120.26s4.69-1.84 9.18-1.84h2.18c4.49 0 9.18 1.84 9.18 1.84l-2.7-2.71v-9.55l.75-1.17c1.83-2.86.8-6.89-2.09-8.24-.5-.23-1.01-.42-1.5-.58-1.42-.45-2.89-.65-4.37-.65h-.72c-1.47 0-2.95.2-4.37.65-.49.15-1 .34-1.5.58-2.89 1.35-3.92 5.38-2.09 8.24l.74 1.17v9.54z"/><path d="m157.14 81.89c-1.51 4.62-1.63 9.37-1.61 14.09h3.28c-.15-4.81-.29-9.51-1.67-14.09z"/><path d="m232.37 256.69h-5.66l.56-18.51c5.9-4.05 2.55-11.1 2.55-11.1-3.66-6.67-11.74-12.55-22.75-16.98l.51-16.76c4.24-2.91 1.83-7.98 1.83-7.98-5.79-10.55-26.94-18.37-52.14-18.37h-.19c-25.2 0-46.35 7.82-52.14 18.37 0 0-2.41 5.06 1.83 7.98v16.97c-10.75 4.41-18.64 10.21-22.24 16.78 0 0-3.35 7.04 2.55 11.1v18.51h-5.49c-1.55 0-2.81 1.26-2.81 2.81v2.56c0 1.55 1.26 2.81 2.81 2.81h150.79c1.55 0 2.81-1.26 2.81-2.81v-2.56c-.01-1.56-1.27-2.82-2.82-2.82zm-125.57 0h-9.94v-25.77c0-2.75 2.23-4.97 4.97-4.97 2.75 0 4.97 2.23 4.97 4.97zm46.63-74.88c0-1.97 1.6-3.58 3.58-3.58 1.97 0 3.58 1.6 3.58 3.58v19.74c-1.09-.02-2.18-.03-3.28-.03h-.27c-1.21 0-2.41.02-3.6.04v-19.75zm-39.63 6.3c0-1.97 1.6-3.58 3.58-3.58 1.97 0 3.58 1.6 3.58 3.58v17.6c-2.48.62-4.86 1.3-7.15 2.03v-19.63zm11.45 68.58h-9.94v-29.58c0-2.75 2.23-4.97 4.97-4.97 2.75 0 4.97 2.23 4.97 4.97zm1.82-71.32c0-1.97 1.6-3.58 3.58-3.58 1.97 0 3.58 1.6 3.58 3.58v17.76c-2.44.35-4.83.76-7.15 1.22v-18.98zm16.52 71.32h-9.94v-32.01c0-2.75 2.23-4.97 4.97-4.97 2.75 0 4.97 2.23 4.97 4.97zm3.81-54.89c-2.42.14-4.81.34-7.15.58v-18.76c0-1.97 1.6-3.58 3.58-3.58 1.97 0 3.58 1.6 3.58 3.58v18.18zm14.52 54.89h-9.94v-34.53c0-2.75 2.23-4.97 4.97-4.97 2.75 0 4.97 2.23 4.97 4.97zm4.69-73.06c0-1.97 1.6-3.58 3.58-3.58 1.97 0 3.58 1.6 3.58 3.58v18.72c-2.34-.24-4.73-.43-7.15-.56v-18.16zm13.64 73.06h-9.94v-32.01c0-2.75 2.23-4.97 4.97-4.97 2.75 0 4.97 2.23 4.97 4.97zm6.7-52.4c-2.33-.45-4.71-.86-7.15-1.21v-17.71c0-1.97 1.6-3.58 3.58-3.58 1.97 0 3.58 1.6 3.58 3.58v18.92zm11.63 52.4h-9.94v-29.58c0-2.75 2.23-4.97 4.97-4.97 2.75 0 4.97 2.23 4.97 4.97zm1.64-49.05c-2.29-.73-4.68-1.4-7.15-2.01v-17.52c0-1.97 1.6-3.58 3.58-3.58 1.97 0 3.58 1.6 3.58 3.58v19.53zm16.81 49.05h-9.94v-25.77c0-2.75 2.23-4.97 4.97-4.97 2.75 0 4.97 2.23 4.97 4.97z"/></g></svg>